<svg xmlns="http://www.w3.org/2000/svg" viewBox="0 0 512 512" role="img" aria-labelledby="title">
  <title id="title">Perch Permits icon</title>
  <defs>
    <mask id="pp-shield-cutout" maskUnits="userSpaceOnUse" x="0" y="0" width="512" height="512">
      <rect width="512" height="512" fill="white"/>
      <path
        fill="black"
        fill-rule="evenodd"
        d="M92 118h124c54 0 86 29 86 74s-32 74-86 74h-34v30h34v36H116v-36h24V160H92Zm92 42v64h30c26 0 42-12 42-32s-16-32-42-32Zm42-42h124c54 0 86 29 86 74s-32 74-86 74h-34v30h34v36H250v-36h24V160h-48Zm92 42v64h30c26 0 42-12 42-32s-16-32-42-32Z"/>
      <rect x="150" y="356" width="212" height="4" rx="2" fill="black"/>
    </mask>
  </defs>
  <path
    fill="#1b3a2d"
    mask="url(#pp-shield-cutout)"
    d="M42 44h428v206L256 474 42 250Z"/>
</svg>
